# xmcd
#
# Track frame offsets:
#  182
#  16015
#  28620
#  48752
#  61522
#  76952
#  89612
#  103342
#  119485
#  137352
#  150165
#
# Disc length: 2214 seconds
# Revision: 12
# Processed by: cddbd v1.5.1PL0 Copyright (c) Steve Scherf et al.
# Submitted via: dyson 0.5
#
DISCID=7608a40b
DTITLE=Clay Walker - Clay Walker
DYEAR=1993
DGENRE=Country
TTITLE0=Dreaming With My Eyes Open
TTITLE1=What's It To You
TTITLE2=The Silence Speaks For Itself
TTITLE3=How To Make A Man Lonesome
TTITLE4=Next Step In Love
TTITLE5=White Palace
TTITLE6=Money Can't Buy (The Love We Had)
TTITLE7=Things I Should Have Said
TTITLE8=Where Do I Fit In The Picture
TTITLE9=Live Until I Die
TTITLE10=I Don't Know How Love Starts
EXTD=
EXTT0=
EXTT1=
EXTT2=
EXTT3=
EXTT4=
EXTT5=
EXTT6=
EXTT7=
EXTT8=
EXTT9=
EXTT10=
PLAYORDER=
